<svg width="22" height="24" viewBox="0 0 22 24" fill="none" xmlns="http://www.w3.org/2000/svg">
<path d="M10.9816 24C10.2339 24 9.47501 23.8103 8.80539 23.4197L2.17624 19.5917C0.837015 18.8105 0 17.3708 0 15.8196V8.186C0 6.63474 0.837015 5.19507 2.17624 4.41386L8.80539 0.58591C10.1446 -0.195303 11.8075 -0.195303 13.1579 0.58591L19.787 4.41386C21.1262 5.19507 21.9633 6.63474 21.9633 8.186V15.8196C21.9633 17.3708 21.1262 18.8105 19.787 19.5917L13.1579 23.4197C12.4883 23.8103 11.7294 24 10.9816 24Z" fill="#FB4E4E"/>
<circle cx="10.9824" cy="16.75" r="0.75" fill="white"/>
<line x1="10.9824" y1="7.25" x2="10.9824" y2="13.75" stroke="white" stroke-width="1.5" stroke-linecap="round"/>
</svg>
