<svg width="124" height="36" viewBox="0 0 124 36" fill="none" xmlns="http://www.w3.org/2000/svg">
<path d="M25.6984 32.2049H16.3984V13.6049H25.6984C30.8134 13.6049 34.9984 17.7899 34.9984 22.9049C34.9984 28.0199 30.8134 32.2049 25.6984 32.2049Z" fill="#FF4081"/>
<path d="M18.625 13.5048L25.6 22.8048H7V4.20483H25.6L18.625 13.5048Z" fill="#651FFF"/>
<path d="M46.256 23.128C45.9253 23.128 45.6693 23.0373 45.488 22.856C45.3173 22.664 45.232 22.4027 45.232 22.072V12.632C45.232 12.2907 45.3173 12.0347 45.488 11.864C45.6693 11.6827 45.9253 11.592 46.256 11.592C46.5867 11.592 46.8373 11.6827 47.008 11.864C47.1893 12.0347 47.28 12.2907 47.28 12.632V16.712H47.312L51.904 12.104C52.0747 11.9333 52.2453 11.8053 52.416 11.72C52.5867 11.6347 52.7787 11.592 52.992 11.592C53.3013 11.592 53.52 11.672 53.648 11.832C53.7867 11.992 53.84 12.1787 53.808 12.392C53.7867 12.6053 53.6853 12.8027 53.504 12.984L48.832 17.608L48.848 16.68L53.728 21.64C53.952 21.8533 54.0693 22.0773 54.08 22.312C54.0907 22.5467 54.016 22.744 53.856 22.904C53.7067 23.0533 53.4827 23.128 53.184 23.128C52.928 23.128 52.72 23.0747 52.56 22.968C52.4107 22.8613 52.2347 22.7067 52.032 22.504L47.312 17.784H47.28V22.072C47.28 22.4027 47.1947 22.664 47.024 22.856C46.8533 23.0373 46.5973 23.128 46.256 23.128ZM59.0455 23.16C58.2348 23.16 57.5308 22.9947 56.9335 22.664C56.3362 22.3333 55.8722 21.864 55.5415 21.256C55.2108 20.6373 55.0455 19.912 55.0455 19.08C55.0455 18.4507 55.1362 17.8907 55.3175 17.4C55.5095 16.8987 55.7815 16.472 56.1335 16.12C56.4855 15.7573 56.9068 15.4853 57.3975 15.304C57.8882 15.112 58.4375 15.016 59.0455 15.016C59.8562 15.016 60.5602 15.1813 61.1575 15.512C61.7548 15.8427 62.2188 16.312 62.5495 16.92C62.8802 17.528 63.0455 18.248 63.0455 19.08C63.0455 19.7093 62.9495 20.2747 62.7575 20.776C62.5762 21.2773 62.3095 21.7093 61.9575 22.072C61.6055 22.424 61.1842 22.696 60.6935 22.888C60.2028 23.0693 59.6535 23.16 59.0455 23.16ZM59.0455 21.64C59.4402 21.64 59.7868 21.544 60.0855 21.352C60.3842 21.16 60.6135 20.8773 60.7735 20.504C60.9442 20.12 61.0295 19.6453 61.0295 19.08C61.0295 18.2267 60.8482 17.592 60.4855 17.176C60.1228 16.7493 59.6428 16.536 59.0455 16.536C58.6508 16.536 58.3042 16.632 58.0055 16.824C57.7068 17.0053 57.4722 17.288 57.3015 17.672C57.1415 18.0453 57.0615 18.5147 57.0615 19.08C57.0615 19.9227 57.2428 20.5627 57.6055 21C57.9682 21.4267 58.4482 21.64 59.0455 21.64ZM65.0513 23C64.8486 23 64.6779 22.952 64.5393 22.856C64.4113 22.7493 64.3259 22.616 64.2833 22.456C64.2406 22.296 64.2406 22.1253 64.2833 21.944C64.3366 21.752 64.4379 21.5707 64.5872 21.4L68.7313 16.2V16.68H64.9553C64.7099 16.68 64.5179 16.616 64.3793 16.488C64.2513 16.3493 64.1873 16.1627 64.1873 15.928C64.1873 15.6827 64.2513 15.496 64.3793 15.368C64.5179 15.24 64.7099 15.176 64.9553 15.176H69.6913C69.9259 15.176 70.1179 15.2293 70.2673 15.336C70.4166 15.432 70.5126 15.56 70.5553 15.72C70.6086 15.88 70.6139 16.0507 70.5713 16.232C70.5286 16.4133 70.4326 16.584 70.2833 16.744L66.0593 22.024V21.496H70.0593C70.5713 21.496 70.8273 21.7467 70.8273 22.248C70.8273 22.4827 70.7579 22.6693 70.6193 22.808C70.4913 22.936 70.3046 23 70.0593 23H65.0513ZM73.1414 23.128C72.8214 23.128 72.576 23.0427 72.4054 22.872C72.2347 22.6907 72.1494 22.4347 72.1494 22.104V12.6C72.1494 12.2693 72.2347 12.0187 72.4054 11.848C72.576 11.6773 72.8214 11.592 73.1414 11.592C73.4614 11.592 73.7067 11.6773 73.8774 11.848C74.0587 12.0187 74.1494 12.2693 74.1494 12.6V16.744H73.9254C74.16 16.1787 74.5227 15.752 75.0134 15.464C75.5147 15.1653 76.08 15.016 76.7094 15.016C77.3387 15.016 77.856 15.1333 78.2614 15.368C78.6667 15.6027 78.9707 15.96 79.1734 16.44C79.376 16.9093 79.4774 17.5067 79.4774 18.232V22.104C79.4774 22.4347 79.392 22.6907 79.2214 22.872C79.0507 23.0427 78.8054 23.128 78.4854 23.128C78.1654 23.128 77.9147 23.0427 77.7334 22.872C77.5627 22.6907 77.4774 22.4347 77.4774 22.104V18.328C77.4774 17.72 77.36 17.2773 77.1254 17C76.9014 16.7227 76.5494 16.584 76.0694 16.584C75.4827 16.584 75.0134 16.7707 74.6614 17.144C74.32 17.5067 74.1494 17.992 74.1494 18.6V22.104C74.1494 22.7867 73.8134 23.128 73.1414 23.128ZM82.5008 23.112C82.1808 23.112 81.9354 23.016 81.7648 22.824C81.5941 22.632 81.5088 22.3653 81.5088 22.024V16.152C81.5088 15.8 81.5941 15.5333 81.7648 15.352C81.9354 15.16 82.1808 15.064 82.5008 15.064C82.8208 15.064 83.0661 15.16 83.2368 15.352C83.4181 15.5333 83.5088 15.8 83.5088 16.152V22.024C83.5088 22.3653 83.4234 22.632 83.2528 22.824C83.0821 23.016 82.8314 23.112 82.5008 23.112ZM82.5008 13.576C82.1274 13.576 81.8341 13.4853 81.6208 13.304C81.4181 13.112 81.3168 12.8507 81.3168 12.52C81.3168 12.1787 81.4181 11.9173 81.6208 11.736C81.8341 11.5547 82.1274 11.464 82.5008 11.464C82.8848 11.464 83.1781 11.5547 83.3808 11.736C83.5834 11.9173 83.6848 12.1787 83.6848 12.52C83.6848 12.8507 83.5834 13.112 83.3808 13.304C83.1781 13.4853 82.8848 13.576 82.5008 13.576ZM86.5789 23.128C86.2589 23.128 86.0135 23.0427 85.8429 22.872C85.6722 22.6907 85.5869 22.4347 85.5869 22.104V16.056C85.5869 15.7253 85.6722 15.4747 85.8429 15.304C86.0135 15.1333 86.2535 15.048 86.5629 15.048C86.8722 15.048 87.1122 15.1333 87.2829 15.304C87.4535 15.4747 87.5389 15.7253 87.5389 16.056V17.144L87.3629 16.744C87.5975 16.1787 87.9602 15.752 88.4509 15.464C88.9522 15.1653 89.5175 15.016 90.1469 15.016C90.7762 15.016 91.2935 15.1333 91.6989 15.368C92.1042 15.6027 92.4082 15.96 92.6109 16.44C92.8135 16.9093 92.9149 17.5067 92.9149 18.232V22.104C92.9149 22.4347 92.8295 22.6907 92.6589 22.872C92.4882 23.0427 92.2429 23.128 91.9229 23.128C91.6029 23.128 91.3522 23.0427 91.1709 22.872C91.0002 22.6907 90.9149 22.4347 90.9149 22.104V18.328C90.9149 17.72 90.7975 17.2773 90.5629 17C90.3389 16.7227 89.9869 16.584 89.5069 16.584C88.9202 16.584 88.4509 16.7707 88.0989 17.144C87.7575 17.5067 87.5869 17.992 87.5869 18.6V22.104C87.5869 22.7867 87.2509 23.128 86.5789 23.128ZM96.2263 23C95.8743 23 95.6023 22.9093 95.4103 22.728C95.2289 22.536 95.1383 22.264 95.1383 21.912V12.808C95.1383 12.456 95.2289 12.1893 95.4103 12.008C95.6023 11.816 95.8743 11.72 96.2263 11.72H99.3303C101.218 11.72 102.674 12.2053 103.698 13.176C104.733 14.1467 105.25 15.5387 105.25 17.352C105.25 18.2587 105.117 19.064 104.85 19.768C104.594 20.4613 104.21 21.048 103.698 21.528C103.197 22.008 102.578 22.376 101.842 22.632C101.117 22.8773 100.28 23 99.3303 23H96.2263ZM97.1863 21.304H99.2023C99.8636 21.304 100.434 21.224 100.914 21.064C101.405 20.8933 101.81 20.648 102.13 20.328C102.461 19.9973 102.706 19.5867 102.866 19.096C103.026 18.5947 103.106 18.0133 103.106 17.352C103.106 16.0293 102.781 15.0427 102.13 14.392C101.48 13.7413 100.504 13.416 99.2023 13.416H97.1863V21.304ZM110.99 23.16C110.104 23.16 109.342 22.9947 108.702 22.664C108.062 22.3333 107.566 21.864 107.214 21.256C106.872 20.648 106.702 19.928 106.702 19.096C106.702 18.2853 106.867 17.576 107.198 16.968C107.539 16.36 108.003 15.8853 108.59 15.544C109.187 15.192 109.864 15.016 110.622 15.016C111.176 15.016 111.672 15.1067 112.11 15.288C112.558 15.4693 112.936 15.7307 113.246 16.072C113.566 16.4133 113.806 16.8293 113.966 17.32C114.136 17.8 114.222 18.344 114.222 18.952C114.222 19.144 114.152 19.2933 114.014 19.4C113.886 19.496 113.699 19.544 113.454 19.544H108.318V18.392H112.814L112.558 18.632C112.558 18.1413 112.483 17.7307 112.334 17.4C112.195 17.0693 111.987 16.8187 111.71 16.648C111.443 16.4667 111.107 16.376 110.702 16.376C110.254 16.376 109.87 16.4827 109.55 16.696C109.24 16.8987 109 17.192 108.83 17.576C108.67 17.9493 108.59 18.3973 108.59 18.92V19.032C108.59 19.9067 108.792 20.5627 109.198 21C109.614 21.4267 110.222 21.64 111.022 21.64C111.299 21.64 111.608 21.608 111.95 21.544C112.302 21.4693 112.632 21.3467 112.942 21.176C113.166 21.048 113.363 20.9947 113.534 21.016C113.704 21.0267 113.838 21.0853 113.934 21.192C114.04 21.2987 114.104 21.432 114.126 21.592C114.147 21.7413 114.115 21.896 114.03 22.056C113.955 22.216 113.822 22.3547 113.63 22.472C113.256 22.7067 112.824 22.8827 112.334 23C111.854 23.1067 111.406 23.16 110.99 23.16ZM118.849 23.128C118.582 23.128 118.347 23.0587 118.145 22.92C117.953 22.7813 117.793 22.568 117.665 22.28L115.121 16.376C115.025 16.1413 114.987 15.9227 115.009 15.72C115.041 15.5173 115.137 15.3573 115.297 15.24C115.467 15.112 115.697 15.048 115.985 15.048C116.23 15.048 116.427 15.1067 116.577 15.224C116.726 15.3307 116.859 15.5387 116.977 15.848L119.137 21.24H118.657L120.881 15.832C120.998 15.5333 121.131 15.3307 121.281 15.224C121.441 15.1067 121.654 15.048 121.921 15.048C122.155 15.048 122.342 15.112 122.481 15.24C122.619 15.3573 122.705 15.5173 122.737 15.72C122.769 15.912 122.731 16.1253 122.625 16.36L120.033 22.28C119.915 22.568 119.755 22.7813 119.553 22.92C119.361 23.0587 119.126 23.128 118.849 23.128Z" fill="black" fill-opacity="0.6"/>
</svg>
