<svg width="32" height="32" viewBox="0 0 32 32" fill="none" xmlns="http://www.w3.org/2000/svg">
<path d="M6.66666 15.7119C6.66666 13.9016 6.66666 12.9964 7.0326 12.2008C7.39855 11.4051 8.08581 10.8161 9.46033 9.6379L10.7937 8.49504C13.2781 6.36553 14.5203 5.30078 16 5.30078C17.4797 5.30078 18.7219 6.36553 21.2063 8.49504L22.5397 9.6379C23.9142 10.8161 24.6014 11.4051 24.9674 12.2008C25.3333 12.9964 25.3333 13.9016 25.3333 15.7119V21.3658C25.3333 23.88 25.3333 25.137 24.5523 25.9181C23.7712 26.6991 22.5141 26.6991 20 26.6991H12C9.48583 26.6991 8.22875 26.6991 7.44771 25.9181C6.66666 25.137 6.66666 23.88 6.66666 21.3658V15.7119Z" stroke="#323232" stroke-width="1.4"/>
<path d="M19.3333 26.6992V19.6992C19.3333 19.1469 18.8856 18.6992 18.3333 18.6992H13.6667C13.1144 18.6992 12.6667 19.1469 12.6667 19.6992V26.6992" stroke="#323232" stroke-width="1.4" stroke-linecap="round" stroke-linejoin="round"/>
</svg>
