<svg width="32" height="32" viewBox="0 0 32 32" fill="none" xmlns="http://www.w3.org/2000/svg">
<circle cx="16" cy="11" r="3.3" stroke="#323232" stroke-width="1.4" stroke-linecap="round"/>
<circle cx="8.66671" cy="11.6666" r="2.63333" stroke="#323232" stroke-width="1.4" stroke-linecap="round"/>
<circle cx="23.3333" cy="11.6666" r="2.63333" stroke="#323232" stroke-width="1.4" stroke-linecap="round"/>
<path d="M16 17.6667C21.716 17.6667 22.9766 22.5272 23.2546 24.6711C23.3257 25.2188 22.8856 25.6667 22.3333 25.6667H9.66663C9.11434 25.6667 8.67426 25.2188 8.74529 24.6711C9.0233 22.5272 10.2839 17.6667 16 17.6667Z" stroke="#323232" stroke-width="1.4" stroke-linecap="round"/>
<path d="M28.4797 21.9129L27.7961 22.0636V22.0636L28.4797 21.9129ZM19.563 18.49L18.9817 18.1L18.553 18.739L19.2296 19.1055L19.563 18.49ZM22.9084 22.9999L22.236 23.1945L22.3823 23.6999H22.9084V22.9999ZM23.3334 17.0333C24.7737 17.0333 25.7642 17.7814 26.4764 18.8124C27.2018 19.8624 27.5958 21.1551 27.7961 22.0636L29.1633 21.7622C28.9471 20.7813 28.504 19.2842 27.6283 18.0167C26.7395 16.7302 25.3651 15.6333 23.3334 15.6333V17.0333ZM20.1443 18.8801C20.8599 17.8135 21.8632 17.0333 23.3334 17.0333V15.6333C21.2565 15.6333 19.8682 16.7788 18.9817 18.1L20.1443 18.8801ZM19.2296 19.1055C20.9445 20.0345 21.8063 21.7091 22.236 23.1945L23.5809 22.8054C23.1011 21.1469 22.0798 19.0572 19.8964 17.8745L19.2296 19.1055ZM27.5617 22.2999H22.9084V23.6999H27.5617V22.2999ZM27.7961 22.0636C27.8101 22.127 27.7944 22.1761 27.7594 22.2168C27.7211 22.2614 27.6538 22.2999 27.5617 22.2999V23.6999C28.5509 23.6999 29.3974 22.8242 29.1633 21.7622L27.7961 22.0636Z" fill="#323232"/>
<path d="M3.5125 21.9129L4.19609 22.0636L4.19609 22.0636L3.5125 21.9129ZM12.4292 18.49L13.0105 18.1L13.4392 18.739L12.7626 19.1055L12.4292 18.49ZM9.08374 22.9999L9.75616 23.1945L9.60993 23.6999H9.08374V22.9999ZM8.65881 17.0333C7.21853 17.0333 6.22804 17.7814 5.51575 18.8124C4.79039 19.8624 4.39634 21.1551 4.19609 22.0636L2.82891 21.7622C3.04513 20.7813 3.48822 19.2842 4.3639 18.0167C5.25265 16.7302 6.62708 15.6333 8.65881 15.6333V17.0333ZM11.8479 18.8801C11.1323 17.8135 10.129 17.0333 8.65881 17.0333V15.6333C10.7357 15.6333 12.124 16.7788 13.0105 18.1L11.8479 18.8801ZM12.7626 19.1055C11.0477 20.0345 10.1859 21.7091 9.75616 23.1945L8.41131 22.8054C8.89113 21.1469 9.9124 19.0572 12.0958 17.8745L12.7626 19.1055ZM4.4305 22.2999H9.08374V23.6999H4.4305V22.2999ZM4.19609 22.0636C4.18212 22.127 4.19775 22.1761 4.23279 22.2168C4.27105 22.2614 4.33838 22.2999 4.4305 22.2999V23.6999C3.44133 23.6999 2.59484 22.8242 2.82891 21.7622L4.19609 22.0636Z" fill="#323232"/>
</svg>
